<svg xmlns="http://www.w3.org/2000/svg" xmlns:xlink="http://www.w3.org/1999/xlink" viewBox="0 0 375 375"><defs><style>.cls-1{fill:none;}.cls-2{clip-path:url(#clip-path);}.cls-3{fill:#fc4a1b;}</style><clipPath id="clip-path"><rect class="cls-1" width="375" height="375"/></clipPath></defs><g id="Layer_2" data-name="Layer 2"><g id="Layer_1-2" data-name="Layer 1"><g class="cls-2"><path class="cls-3" d="M109.5,30h192a7.48,7.48,0,0,1,7.5,7.5v54a7.48,7.48,0,0,1-7.5,7.5h-192a7.48,7.48,0,0,1-7.5-7.5v-54a7.48,7.48,0,0,1,7.5-7.5"/><path class="cls-3" d="M372.89,204.47l-30-16.39-16.39-30a1.18,1.18,0,0,0-2.06,0l-16.39,30-30,16.39a1.18,1.18,0,0,0,0,2.06l30,16.39,16.39,30a1.18,1.18,0,0,0,2.06,0l16.39-30,30-16.39a1.18,1.18,0,0,0,0-2.06"/><path class="cls-3" d="M96.89,300.47l-30-16.39-16.39-30a1.18,1.18,0,0,0-2.06,0l-16.39,30-30,16.39a1.18,1.18,0,0,0,0,2.06l30,16.39,16.39,30a1.18,1.18,0,0,0,2.06,0l16.39-30,30-16.39a1.18,1.18,0,0,0,0-2.06"/><path class="cls-3" d="M214.5,129h-18a7.5,7.5,0,0,1,0-15h18a7.5,7.5,0,0,1,0,15"/><path d="M367.5,33H339V19.5A19.5,19.5,0,0,0,319.5,0H91.5A19.5,19.5,0,0,0,72,19.5V33H43.5A7.5,7.5,0,0,0,36,40.5V60H29.7A29.7,29.7,0,0,0,0,89.7v57.6A29.7,29.7,0,0,0,29.7,177H198v21H181.5a7.5,7.5,0,0,0-7.5,7.5V228h-4.5a7.5,7.5,0,0,0-7.5,7.5v132a7.5,7.5,0,0,0,7.5,7.5h72a7.5,7.5,0,0,0,7.5-7.5v-132a7.5,7.5,0,0,0-7.5-7.5H237V205.5a7.5,7.5,0,0,0-7.5-7.5H213V168a6,6,0,0,0-6-6H29.7A14.7,14.7,0,0,1,15,147.3V89.7A14.7,14.7,0,0,1,29.7,75H36V88.5A7.5,7.5,0,0,0,43.5,96H72v13.5A19.5,19.5,0,0,0,91.5,129h75a7.5,7.5,0,0,0,0-15h-75a4.52,4.52,0,0,1-4.5-4.5v-90A4.52,4.52,0,0,1,91.5,15h228a4.52,4.52,0,0,1,4.5,4.5v90a4.52,4.52,0,0,1-4.5,4.5h-75a7.5,7.5,0,0,0,0,15h75A19.5,19.5,0,0,0,339,109.5V96h28.5a7.5,7.5,0,0,0,7.5-7.5v-48a7.5,7.5,0,0,0-7.5-7.5M234,360H177V243h57ZM222,228H189V213h33ZM72,81H51V48H72Zm288,0H339V48h21Z"/></g></g></g></svg>