<svg xmlns="http://www.w3.org/2000/svg" xmlns:xlink="http://www.w3.org/1999/xlink" viewBox="0 0 501.39 498.25"><defs><style>.cls-1{fill:none;}.cls-2{clip-path:url(#clip-path);}.cls-3{fill:#ff4672;}</style><clipPath id="clip-path" transform="translate(0 0)"><rect class="cls-1" width="501.39" height="498.25"/></clipPath></defs><g id="Layer_2" data-name="Layer 2"><g id="Layer_1-2" data-name="Layer 1"><g class="cls-2"><path class="cls-3" d="M425,368.15a10,10,0,0,0-8.66-5h-37.3a10,10,0,0,0-8.66,5l-18.7,32.28a10,10,0,0,0,0,10l18.7,32.37a10,10,0,0,0,8.66,5h37.3a10,10,0,0,0,8.67-5l18.61-32.37a10,10,0,0,0,0-10Zm-14.45,59.64H384.84l-12.91-22.35,12.9-22.29h25.76l12.85,22.29Z" transform="translate(0 0)"/><path d="M498.63,395.05l-.06-.09-41.36-71.61A21,21,0,0,0,439,312.89H356.4a21.47,21.47,0,0,0-18.27,10.47L296.9,394.89a20.86,20.86,0,0,0,0,21.09l41.33,71.61a21,21,0,0,0,18.22,10.47H439a20.91,20.91,0,0,0,18.18-10.55l41.42-71.62a21,21,0,0,0,0-20.84m-58.78,82.54a1,1,0,0,1-.82.47H356.4a1.11,1.11,0,0,1-.94-.56l-41.32-71.59a.84.84,0,0,1,0-1l41.17-71.41a1.23,1.23,0,0,1,1-.65H439a1.13,1.13,0,0,1,.87.46l41.32,71.54a1.12,1.12,0,0,1,0,1.08Z" transform="translate(0 0)"/><path d="M212.74,345.5l-27.55,27.55a10,10,0,0,0-2.75,8.92,81.33,81.33,0,1,1-65-65,10.08,10.08,0,0,0,8.93-2.76l128.91-129a10,10,0,1,0-14.14-14.14L115.85,296.48A101.32,101.32,0,1,0,203,383.57l23.93-23.93a10,10,0,0,0-14.14-14.14Z" transform="translate(0 0)"/><path d="M328.32,258.28a10,10,0,1,0-14.12-14.16l-28.5,28.41a10,10,0,0,0,14.12,14.17Z" transform="translate(0 0)"/><path class="cls-3" d="M61.85,356.07a57.63,57.63,0,1,0,81.5,0,57.64,57.64,0,0,0-81.5,0m67.36,67.36a37.63,37.63,0,1,1,0-53.22,37.63,37.63,0,0,1,0,53.22" transform="translate(0 0)"/><path class="cls-3" d="M168.61,345,292.1,221.46A10,10,0,0,0,278,207.29l0,0L154.47,330.81A10,10,0,0,0,168.61,345Z" transform="translate(0 0)"/><path class="cls-3" d="M465.75,196.15a114.91,114.91,0,0,0,25.94-122.6,4.49,4.49,0,0,0-7.33-1.44L411,145.48l-37.69-6.15a16,16,0,0,1-13.21-13.21l-6.15-37.68,73.38-73.38a4.47,4.47,0,0,0,0-6.33,4.59,4.59,0,0,0-1.47-1,114.89,114.89,0,1,0,39.87,188.41Z" transform="translate(0 0)"/><path d="M185.92,77.13,144.56,5.52A11.1,11.1,0,0,0,135,.06H52.4a11.24,11.24,0,0,0-9.61,5.46L1.52,77.13a10.73,10.73,0,0,0,0,11l41.27,71.52a11.17,11.17,0,0,0,9.61,5.56H135a11,11,0,0,0,9.53-5.56l41.36-71.52a11.16,11.16,0,0,0,0-11M112.37,115H75.07L56.37,82.6l18.7-32.28h37.3L131,82.6Z" transform="translate(0 0)"/><path class="cls-3" d="M240.84,331.62a10,10,0,0,1,0-14.14h0l16.83-16.82a10,10,0,0,1,14.15,14.14L255,331.62a10,10,0,0,1-14.13,0Z" transform="translate(0 0)"/></g></g></g></svg>