<svg xmlns="http://www.w3.org/2000/svg" xmlns:xlink="http://www.w3.org/1999/xlink" viewBox="0 0 500 500"><defs><style>.cls-1{fill:none;}.cls-2{clip-path:url(#clip-path);}.cls-3{fill:#4660ff;}</style><clipPath id="clip-path" transform="translate(0 0)"><rect class="cls-1" width="500" height="500"/></clipPath></defs><g id="Layer_2" data-name="Layer 2"><g id="Layer_1-2" data-name="Layer 1"><g class="cls-2"><path d="M198,384H26a6.07,6.07,0,0,1-6-6V106a6.07,6.07,0,0,1,6-6h78a10,10,0,0,0,0-20H26A26,26,0,0,0,0,106V378a26,26,0,0,0,26,26H198a10,10,0,0,0,0-20" transform="translate(0 0)"/><path d="M474,80H396a10,10,0,0,0,0,20h78a6.07,6.07,0,0,1,6,6V378a6.07,6.07,0,0,1-6,6H302a10,10,0,0,0,0,20H474a26,26,0,0,0,26-26V106a26,26,0,0,0-26-26" transform="translate(0 0)"/><path d="M250,68a18,18,0,1,1-18,18,18,18,0,0,1,18-18" transform="translate(0 0)"/><path class="cls-3" d="M146,228h68a10,10,0,0,0,10-10h0V172h52v46a10,10,0,0,0,10,10h68a10,10,0,0,0,10-10h0V66a10,10,0,0,0-5.26-8.8l-104-56a10,10,0,0,0-9.48,0l-104,56A10,10,0,0,0,136,66V218a10,10,0,0,0,10,10ZM250,48a38,38,0,1,1-38,38,38,38,0,0,1,38-38" transform="translate(0 0)"/><path d="M44,274v72a10,10,0,0,0,10,10H446a10,10,0,0,0,10-10h0V274a10,10,0,0,0-10-10H54a10,10,0,0,0-10,10Zm20,10H436v52H392V309.16a10,10,0,0,0-20,0V336H304V309.16a10,10,0,0,0-20,0V336H216V309.16a10,10,0,0,0-20,0V336H128V309.16a10,10,0,0,0-20,0V336H64Z" transform="translate(0 0)"/><path class="cls-3" d="M262,404H238a10,10,0,0,1,0-20h24a10,10,0,0,1,0,20" transform="translate(0 0)"/><path class="cls-3" d="M354,456H304V434a10,10,0,0,0-10-10H206a10,10,0,0,0-10,10h0v22H146a10,10,0,0,0-10,10h0v24a10,10,0,0,0,10,10H354a10,10,0,0,0,10-10h0V466a10,10,0,0,0-10-10Z" transform="translate(0 0)"/></g></g></g></svg>