<svg xmlns="http://www.w3.org/2000/svg" xmlns:xlink="http://www.w3.org/1999/xlink" viewBox="0 0 379.5 376.4"><defs><style>.cls-1{fill:none;}.cls-2{clip-path:url(#clip-path);}.cls-3{fill:#01d3ff;}</style><clipPath id="clip-path" transform="translate(0 0)"><rect class="cls-1" width="379.5" height="376.4"/></clipPath></defs><g id="Layer_2" data-name="Layer 2"><g id="Layer_1-2" data-name="Layer 1"><g class="cls-2"><path class="cls-3" d="M286.82,30.89l-63.36,67.9a84.1,84.1,0,0,1,64.06,59.75l63.35-67.9Z" transform="translate(0 0)"/><path d="M266.59,169.68a31.19,31.19,0,0,0,7.72-1.92,69.16,69.16,0,0,0-59.11-55.17,30.89,30.89,0,0,0-1.39,7.86l-1.51,47.2a6.64,6.64,0,0,0,7.3,6.81l47-4.78" transform="translate(0 0)"/><path class="cls-3" d="M377.39,52.48,323,1.78a6.63,6.63,0,0,0-9.38.33L297.05,19.92,361.1,79.68l16.61-17.82a6.59,6.59,0,0,0,1.79-4.76,6.7,6.7,0,0,0-2.11-4.62" transform="translate(0 0)"/><path d="M367.5,103.4a7.49,7.49,0,0,0-7.5,7.5v108a7.5,7.5,0,0,0,15,0v-108a7.51,7.51,0,0,0-7.5-7.5" transform="translate(0 0)"/><path d="M367.5,289.4a7.51,7.51,0,0,0-7.5,7.5v60a4.51,4.51,0,0,1-4.5,4.5H66.43A50.62,50.62,0,0,1,15.1,315.18,49.46,49.46,0,0,1,64.5,262.4a7.49,7.49,0,0,0,7.5-7.5.61.61,0,0,0,0-.13.5.5,0,0,0,0-.13V58.4H217.5a7.5,7.5,0,0,0,0-15H72V8.9a7.49,7.49,0,0,0-7.5-7.5A64.57,64.57,0,0,0,0,65.9V313.37c0,.18.09.33.1.51,0,.75,0,1.49,0,2.25a65.64,65.64,0,0,0,66.3,60.27H355.5A19.52,19.52,0,0,0,375,356.9v-60a7.51,7.51,0,0,0-7.5-7.5M15,65.9A49.57,49.57,0,0,1,57,17V247.88a64.11,64.11,0,0,0-42,22.77Z" transform="translate(0 0)"/><path d="M325.5,247.4h-222a7.51,7.51,0,0,0-7.5,7.5v72a7.51,7.51,0,0,0,7.5,7.5h222a7.51,7.51,0,0,0,7.5-7.5v-72a7.51,7.51,0,0,0-7.5-7.5m-7.5,72H111v-57h25.63v16.5a7.5,7.5,0,0,0,15,0V262.4h31.92v40.5a7.5,7.5,0,0,0,15,0V262.4h31.91v16.5a7.5,7.5,0,0,0,15,0V262.4h31.91v40.5a7.5,7.5,0,0,0,15,0V262.4H318Z" transform="translate(0 0)"/><path d="M103.5,196.4h66a7.5,7.5,0,0,0,0-15h-66a7.5,7.5,0,1,0,0,15" transform="translate(0 0)"/><path d="M325.5,211.4h-222a7.5,7.5,0,1,0,0,15h222a7.5,7.5,0,0,0,0-15" transform="translate(0 0)"/><path class="cls-3" d="M367.5,274.4a7.49,7.49,0,0,1-7.5-7.5v-18a7.5,7.5,0,1,1,15,0v18a7.51,7.51,0,0,1-7.5,7.5" transform="translate(0 0)"/><path class="cls-3" d="M115.5,80.9h48A19.46,19.46,0,0,1,183,100.4v48a19.46,19.46,0,0,1-19.5,19.5h-48A19.45,19.45,0,0,1,96,148.4v-48a19.45,19.45,0,0,1,19.5-19.5" transform="translate(0 0)"/></g></g></g></svg>