<svg width="16" height="16" viewBox="0 0 16 16" fill="none" xmlns="http://www.w3.org/2000/svg">
<path d="M11.5146 16C8.70972 16 5.71444 14.9693 3.3725 12.6275C1.03447 10.2894 0 7.29613 0 4.48541C0 2.00825 2.00413 0 4.48541 0C4.67709 0 4.84944 0.116687 4.92063 0.294656L6.92897 5.3155C7.02513 5.55587 6.90822 5.82866 6.66787 5.92481L4.46172 6.80725C4.61778 9.34531 6.65509 11.3825 9.19275 11.5383L10.0752 9.33219C10.1712 9.09222 10.4438 8.97487 10.6845 9.07106L15.7053 11.0794C15.8833 11.1506 16 11.3229 16 11.5146C16 13.9918 13.9959 16 11.5146 16Z" fill="white"/>
</svg>
