<svg width="25" height="25" viewBox="0 0 25 25" fill="none" xmlns="http://www.w3.org/2000/svg">
<path d="M19.0064 16.538C18.1896 15.7317 17.17 15.7317 16.3584 16.538C15.7394 17.1519 15.1203 17.7657 14.5116 18.39C14.3452 18.5617 14.2047 18.5981 14.0018 18.4837C13.6012 18.2652 13.1746 18.0883 12.7897 17.849C10.9949 16.7201 9.49144 15.2687 8.15966 13.6351C7.49897 12.8236 6.91112 11.9548 6.50014 10.9768C6.4169 10.7791 6.43251 10.649 6.59378 10.4878C7.21285 9.88952 7.81631 9.27565 8.42498 8.66178C9.27295 7.80861 9.27295 6.80978 8.41978 5.9514C7.93596 5.46239 7.45215 4.98378 6.96834 4.49477C6.46892 3.99535 5.97471 3.49073 5.47009 2.99652C4.65334 2.20057 3.63369 2.20057 2.82214 3.00172C2.19787 3.61559 1.59961 4.24506 0.96493 4.84852C0.377074 5.40517 0.0805447 6.08666 0.0181175 6.88261C-0.0807255 8.17797 0.236613 9.40051 0.684007 10.5918C1.59961 13.0577 2.99381 15.2478 4.68455 17.2559C6.96834 19.9715 9.69433 22.12 12.8833 23.6703C14.3191 24.3674 15.807 24.9032 17.4249 24.9917C18.5382 25.0541 19.5058 24.7732 20.2809 23.9044C20.8116 23.3114 21.4098 22.7703 21.9717 22.2033C22.804 21.3605 22.8092 20.3409 21.9821 19.5085C20.9936 18.5149 20 17.5264 19.0064 16.538Z" fill="url(#paint0_linear_633_195)"/>
<path d="M18.0113 12.3918L19.931 12.064C19.6292 10.3005 18.7969 8.70338 17.5327 7.43403C16.1957 6.09705 14.505 5.25428 12.6426 4.99417L12.3721 6.92421C13.8131 7.1271 15.1241 7.77738 16.1593 8.81263C17.1373 9.79066 17.7772 11.0288 18.0113 12.3918Z" fill="url(#paint1_linear_633_195)"/>
<path d="M21.013 4.04736C18.7968 1.8312 15.9928 0.431788 12.8975 0L12.627 1.93004C15.3009 2.3046 17.7252 3.51673 19.6396 5.42596C21.4552 7.24155 22.6465 9.53575 23.0783 12.0588L24.9979 11.7311C24.4933 8.80743 23.1147 6.15428 21.013 4.04736Z" fill="url(#paint2_linear_633_195)"/>
<defs>
<linearGradient id="paint0_linear_633_195" x1="-0.370768" y1="13.449" x2="22.3932" y2="13.449" gradientUnits="userSpaceOnUse">
<stop stop-color="#99E9A5"/>
<stop offset="1" stop-color="#3847EF"/>
</linearGradient>
<linearGradient id="paint1_linear_633_195" x1="12.2481" y1="8.6108" x2="19.8621" y2="8.6108" gradientUnits="userSpaceOnUse">
<stop stop-color="#99E9A5"/>
<stop offset="1" stop-color="#3847EF"/>
</linearGradient>
<linearGradient id="paint2_linear_633_195" x1="12.424" y1="5.89546" x2="24.8852" y2="5.89546" gradientUnits="userSpaceOnUse">
<stop stop-color="#99E9A5"/>
<stop offset="1" stop-color="#3847EF"/>
</linearGradient>
</defs>
</svg>
