<svg width="18" height="14" viewBox="0 0 18 14" fill="none" xmlns="http://www.w3.org/2000/svg">
<path fill-rule="evenodd" clip-rule="evenodd" d="M0.666664 3.66668C0.666664 1.82573 2.15905 0.333344 4 0.333344H14C15.8409 0.333344 17.3333 1.82573 17.3333 3.66668V10.3333C17.3333 12.1743 15.8409 13.6667 14 13.6667H4C2.15905 13.6667 0.666664 12.1743 0.666664 10.3333V3.66668ZM4.53348 3.02649C4.17991 2.73185 3.65445 2.77962 3.35981 3.13318C3.06517 3.48675 3.11294 4.01222 3.46651 4.30686L6.33256 6.69526C7.87775 7.98293 10.1222 7.98293 11.6674 6.69526L14.5335 4.30686C14.8871 4.01222 14.9348 3.48675 14.6402 3.13318C14.3456 2.77962 13.8201 2.73185 13.4665 3.02649L10.6004 5.41484C9.67333 6.18743 8.32666 6.18743 7.3995 5.41484L4.53348 3.02649Z" fill="white"/>
</svg>
