<svg width="49" height="49" viewBox="0 0 49 49" fill="none" xmlns="http://www.w3.org/2000/svg">
<path d="M38.6691 16.4558L30.8496 24.2754C30.87 24.3571 30.87 24.4183 30.87 24.5C30.87 28.0116 28.0116 30.87 24.5 30.87C24.4183 30.87 24.3571 30.87 24.2754 30.8496L16.4558 38.6691C18.8241 40.0575 21.5804 40.8333 24.5 40.8333C33.5037 40.8333 40.8333 33.5037 40.8333 24.5C40.8333 21.5804 40.0575 18.8241 38.6691 16.4558Z" fill="#282D45"/>
<path d="M36.0355 12.9645L28.9917 20.0083C27.8484 18.8445 26.2559 18.13 24.5001 18.13C20.9884 18.13 18.1301 20.9883 18.1301 24.5C18.1301 26.2558 18.8447 27.8483 20.0084 28.9916L12.9647 36.0354C10.0042 33.075 8.16675 28.9916 8.16675 24.5C8.16675 15.4962 15.4963 8.16663 24.5001 8.16663C28.9917 8.16663 33.0751 10.0041 36.0355 12.9645Z" fill="#282D45"/>
<path d="M28.9915 20.0083L20.0082 28.9917C18.8445 27.8483 18.1299 26.2558 18.1299 24.5C18.1299 20.9883 20.9882 18.13 24.4999 18.13C26.2557 18.13 27.8482 18.8446 28.9915 20.0083Z" fill="url(#paint0_linear_351_240)"/>
<path d="M26.0312 4.08337V8.24837H26.0108C25.5208 8.18712 25.0104 8.16671 24.5 8.16671C23.9896 8.16671 23.4792 8.18712 22.9892 8.24837H22.9688V4.08337C22.9688 3.24629 23.6629 2.55212 24.5 2.55212C25.3371 2.55212 26.0312 3.24629 26.0312 4.08337Z" fill="url(#paint1_linear_351_240)"/>
<path d="M8.16659 24.5C8.16659 25.0104 8.187 25.5413 8.24825 26.0312H4.08325C3.24617 26.0312 2.552 25.3371 2.552 24.5C2.552 23.6629 3.24617 22.9688 4.08325 22.9688H8.24825C8.187 23.4588 8.16659 23.9896 8.16659 24.5Z" fill="url(#paint2_linear_351_240)"/>
<path d="M26.0312 40.7517V44.9167C26.0312 45.7538 25.3371 46.448 24.5 46.448C23.6629 46.448 22.9688 45.7538 22.9688 44.9167V40.7517H22.9892C23.4792 40.813 23.9896 40.8334 24.5 40.8334C25.0104 40.8334 25.5208 40.813 26.0108 40.7517H26.0312Z" fill="url(#paint3_linear_351_240)"/>
<path d="M46.448 24.5C46.448 25.3371 45.7538 26.0312 44.9167 26.0312H40.7517C40.813 25.5413 40.8334 25.0104 40.8334 24.5C40.8334 23.9896 40.813 23.4588 40.7517 22.9688H44.9167C45.7538 22.9688 46.448 23.6629 46.448 24.5Z" fill="url(#paint4_linear_351_240)"/>
<path d="M44.4471 4.55288C43.8346 3.94038 42.8341 3.94038 42.2216 4.55288L4.55288 42.2421C3.94038 42.8546 3.94038 43.855 4.55288 44.4675C4.85913 44.7533 5.24705 44.9166 5.65538 44.9166C6.06371 44.9166 6.45163 44.7533 6.75788 44.4471L44.4471 6.75788C45.08 6.14538 45.08 5.16538 44.4471 4.55288Z" fill="url(#paint5_linear_351_240)"/>
<defs>
<linearGradient id="paint0_linear_351_240" x1="18.1687" y1="23.5606" x2="29.6122" y2="23.5606" gradientUnits="userSpaceOnUse">
<stop stop-color="#331C9C"/>
<stop offset="1" stop-color="#9066FB"/>
</linearGradient>
<linearGradient id="paint1_linear_351_240" x1="22.9797" y1="5.40012" x2="26.2063" y2="5.40012" gradientUnits="userSpaceOnUse">
<stop stop-color="#331C9C"/>
<stop offset="1" stop-color="#9066FB"/>
</linearGradient>
<linearGradient id="paint2_linear_351_240" x1="2.57235" y1="24.4999" x2="8.57375" y2="24.4999" gradientUnits="userSpaceOnUse">
<stop stop-color="#331C9C"/>
<stop offset="1" stop-color="#9066FB"/>
</linearGradient>
<linearGradient id="paint3_linear_351_240" x1="22.9797" y1="43.5997" x2="26.2063" y2="43.5997" gradientUnits="userSpaceOnUse">
<stop stop-color="#331C9C"/>
<stop offset="1" stop-color="#9066FB"/>
</linearGradient>
<linearGradient id="paint4_linear_351_240" x1="40.7721" y1="24.4999" x2="46.7735" y2="24.4999" gradientUnits="userSpaceOnUse">
<stop stop-color="#331C9C"/>
<stop offset="1" stop-color="#9066FB"/>
</linearGradient>
<linearGradient id="paint5_linear_351_240" x1="4.23932" y1="24.5042" x2="47.2548" y2="24.5041" gradientUnits="userSpaceOnUse">
<stop stop-color="#331C9C"/>
<stop offset="1" stop-color="#9066FB"/>
</linearGradient>
</defs>
</svg>
