<svg width="47" height="47" viewBox="0 0 47 47" fill="none" xmlns="http://www.w3.org/2000/svg">
<path d="M27.6714 22.2075C28.4351 18.9959 25.6347 16.1953 22.423 16.9591C20.9151 17.3312 19.6814 18.565 19.3093 20.0729C18.5456 23.2845 21.346 26.085 24.5576 25.3212C26.0851 24.9491 27.3189 23.7154 27.6714 22.2075Z" fill="url(#paint0_linear_350_171)"/>
<path d="M11.7893 35.1913C11.4368 35.1913 11.0647 35.0543 10.7905 34.7997C6.99135 31.2747 4.81763 26.3005 4.81763 21.1305C4.81763 10.8296 13.1993 2.448 23.5001 2.448C33.8009 2.448 42.1826 10.8296 42.1826 21.1305C42.1826 26.3396 40.0872 31.1571 36.288 34.7409C35.7005 35.2892 34.7605 35.2697 34.2122 34.6822C33.6639 34.0947 33.6834 33.1547 34.2709 32.6064C37.4826 29.5905 39.2451 25.5367 39.2451 21.1501C39.2451 12.4746 32.1755 5.4051 23.5001 5.4051C14.8247 5.4051 7.75513 12.4746 7.75513 21.1501C7.75513 25.5759 9.53719 29.6492 12.788 32.6651C13.3755 33.2134 13.4147 34.1534 12.8664 34.7409C12.5726 35.0346 12.181 35.1913 11.7893 35.1913Z" fill="#282D45"/>
<path d="M31.3333 29.9625C30.9808 29.9625 30.6087 29.8254 30.3346 29.5708C29.7471 29.0225 29.7079 28.0825 30.2758 27.495C31.9012 25.7717 32.8021 23.5 32.8021 21.15C32.8021 16.0192 28.6308 11.8676 23.5195 11.8676C18.4083 11.8676 14.2371 16.0388 14.2371 21.15C14.2371 23.5196 15.1379 25.7717 16.7633 27.495C17.3116 28.0825 17.2921 29.0225 16.7046 29.5708C16.1171 30.1388 15.1771 30.0997 14.6287 29.5122C12.4941 27.2405 11.2996 24.2638 11.2996 21.15C11.2996 14.4134 16.7829 8.93005 23.5195 8.93005C30.2562 8.93005 35.7396 14.4134 35.7396 21.15C35.7396 24.2638 34.5646 27.2405 32.4104 29.5122C32.1166 29.8059 31.725 29.9625 31.3333 29.9625Z" fill="#282D45"/>
<path d="M20.1705 32.6257L17.3505 36.1312C15.118 38.9316 17.0959 43.0637 20.6797 43.0637H26.3001C29.8838 43.0637 31.8814 38.912 29.6293 36.1312L26.8093 32.6257C25.1251 30.4911 21.8743 30.4911 20.1705 32.6257Z" fill="url(#paint1_linear_350_171)"/>
<defs>
<linearGradient id="paint0_linear_350_171" x1="19.2131" y1="21.1399" x2="28.2907" y2="21.1399" gradientUnits="userSpaceOnUse">
<stop stop-color="#331C9C"/>
<stop offset="1" stop-color="#9066FB"/>
</linearGradient>
<linearGradient id="paint1_linear_350_171" x1="16.4576" y1="37.044" x2="31.3914" y2="37.0439" gradientUnits="userSpaceOnUse">
<stop stop-color="#331C9C"/>
<stop offset="1" stop-color="#9066FB"/>
</linearGradient>
</defs>
</svg>
