<svg width="49" height="49" viewBox="0 0 49 49" fill="none" xmlns="http://www.w3.org/2000/svg">
<path d="M35.7906 15.8638C35.6477 15.8434 35.5048 15.8434 35.3619 15.8638C32.1973 15.7617 29.686 13.1688 29.686 9.98379C29.686 6.73754 32.3198 4.08337 35.5865 4.08337C38.8327 4.08337 41.4869 6.71712 41.4869 9.98379C41.4664 13.1688 38.9552 15.7617 35.7906 15.8638Z" fill="#282D45"/>
<path d="M42.4464 30.0125C40.1598 31.5437 36.9544 32.1154 33.9939 31.7274C34.7698 30.0533 35.1781 28.1954 35.1985 26.2354C35.1985 24.1937 34.7493 22.2541 33.8918 20.5596C36.9135 20.1512 40.1189 20.7229 42.426 22.2541C45.6518 24.3774 45.6518 27.8687 42.4464 30.0125Z" fill="#282D45"/>
<path d="M13.1486 15.8638C13.2916 15.8434 13.4345 15.8434 13.5774 15.8638C16.742 15.7617 19.2532 13.1688 19.2532 9.98379C19.2532 6.73754 16.6195 4.08337 13.3528 4.08337C10.1066 4.08337 7.45239 6.71712 7.45239 9.98379C7.47281 13.1688 9.98405 15.7617 13.1486 15.8638Z" fill="#282D45"/>
<path d="M13.3733 26.2354C13.3733 28.2158 13.802 30.0942 14.5779 31.7887C11.6991 32.095 8.69786 31.4825 6.49286 30.0329C3.26703 27.8892 3.26703 24.3979 6.49286 22.2541C8.67745 20.7841 11.7604 20.1921 14.6595 20.5187C13.8224 22.2337 13.3733 24.1733 13.3733 26.2354Z" fill="#282D45"/>
<path d="M24.7453 32.4012C24.582 32.3808 24.3982 32.3808 24.2145 32.4012C20.4578 32.2787 17.4565 29.1958 17.4565 25.3983C17.4565 21.5192 20.5803 18.375 24.4799 18.375C28.359 18.375 31.5032 21.5192 31.5032 25.3983C31.5032 29.1958 28.5224 32.2787 24.7453 32.4012Z" fill="url(#paint0_linear_339_255)"/>
<path d="M18.1098 36.6275C15.0269 38.6896 15.0269 42.0788 18.1098 44.1204C21.6215 46.4683 27.379 46.4683 30.8906 44.1204C33.9736 42.0583 33.9736 38.6692 30.8906 36.6275C27.3994 34.2796 21.6419 34.2796 18.1098 36.6275Z" fill="url(#paint1_linear_339_255)"/>
<defs>
<linearGradient id="paint0_linear_339_255" x1="17.5067" y1="25.3878" x2="32.3059" y2="25.3878" gradientUnits="userSpaceOnUse">
<stop stop-color="#331C9C"/>
<stop offset="1" stop-color="#9066FB"/>
</linearGradient>
<linearGradient id="paint1_linear_339_255" x1="15.8598" y1="40.3737" x2="34.1974" y2="40.3737" gradientUnits="userSpaceOnUse">
<stop stop-color="#331C9C"/>
<stop offset="1" stop-color="#9066FB"/>
</linearGradient>
</defs>
</svg>
