<svg width="45" height="45" viewBox="0 0 45 45" fill="none" xmlns="http://www.w3.org/2000/svg">
<path d="M41.25 18.2812C40.4813 18.2812 39.8438 17.6438 39.8438 16.875V13.125C39.8438 8.2875 36.7125 5.15625 31.875 5.15625H13.125C8.2875 5.15625 5.15625 8.2875 5.15625 13.125V16.875C5.15625 17.6438 4.51875 18.2812 3.75 18.2812C2.98125 18.2812 2.34375 17.6438 2.34375 16.875V13.125C2.34375 6.675 6.675 2.34375 13.125 2.34375H31.875C38.325 2.34375 42.6562 6.675 42.6562 13.125V16.875C42.6562 17.6438 42.0187 18.2812 41.25 18.2812Z" fill="#282D45"/>
<path d="M31.875 42.6562H13.125C6.675 42.6562 2.34375 38.325 2.34375 31.875V28.125C2.34375 27.3562 2.98125 26.7188 3.75 26.7188C4.51875 26.7188 5.15625 27.3562 5.15625 28.125V31.875C5.15625 36.7125 8.2875 39.8438 13.125 39.8438H31.875C36.7125 39.8438 39.8438 36.7125 39.8438 31.875V28.125C39.8438 27.3562 40.4813 26.7188 41.25 26.7188C42.0187 26.7188 42.6562 27.3562 42.6562 28.125V31.875C42.6562 38.325 38.325 42.6562 31.875 42.6562Z" fill="#282D45"/>
<path d="M30.7501 15.3939L23.7001 11.5875C22.9501 11.1938 22.0688 11.1938 21.3188 11.5875L14.2689 15.3939C13.7626 15.6751 13.4438 16.2188 13.4438 16.8375C13.4438 17.4563 13.7626 18.0001 14.2689 18.2813L21.3188 22.0876C21.6938 22.2939 22.1063 22.3876 22.5188 22.3876C22.9313 22.3876 23.3438 22.2939 23.7188 22.0876L30.7689 18.2813C31.2751 18.0001 31.5939 17.4563 31.5939 16.8375C31.5751 16.2188 31.2563 15.6751 30.7501 15.3939Z" fill="#282D45"/>
<path d="M20.1375 23.3811L13.575 20.0999C13.0687 19.8561 12.4874 19.875 11.9999 20.175C11.5124 20.475 11.2312 20.9812 11.2312 21.5437V27.7499C11.2312 28.8187 11.8312 29.7937 12.7875 30.2625L19.35 33.5437C19.575 33.6562 19.8187 33.7124 20.0812 33.7124C20.3812 33.7124 20.6624 33.6374 20.9249 33.4687C21.4124 33.1687 21.6937 32.6624 21.6937 32.0999V25.8937C21.6937 24.8249 21.1125 23.8686 20.1375 23.3811Z" fill="url(#paint0_linear_350_181)"/>
<path d="M32.9813 20.175C32.4938 19.875 31.9126 19.8561 31.4064 20.0999L24.8439 23.3811C23.8876 23.8686 23.2876 24.8249 23.2876 25.8937V32.0999C23.2876 32.6624 23.5689 33.1687 24.0564 33.4687C24.3189 33.6374 24.6001 33.7124 24.9001 33.7124C25.1438 33.7124 25.3876 33.6562 25.6313 33.5437L32.1938 30.2625C33.1501 29.775 33.7501 28.8187 33.7501 27.7499V21.5437C33.7501 20.9812 33.4688 20.475 32.9813 20.175Z" fill="url(#paint1_linear_350_181)"/>
<defs>
<linearGradient id="paint0_linear_350_181" x1="11.2686" y1="26.8219" x2="22.2916" y2="26.8219" gradientUnits="userSpaceOnUse">
<stop stop-color="#331C9C"/>
<stop offset="1" stop-color="#9066FB"/>
</linearGradient>
<linearGradient id="paint1_linear_350_181" x1="23.325" y1="26.8219" x2="34.348" y2="26.8219" gradientUnits="userSpaceOnUse">
<stop stop-color="#331C9C"/>
<stop offset="1" stop-color="#9066FB"/>
</linearGradient>
</defs>
</svg>
