<svg width="46" height="46" viewBox="0 0 46 46" fill="none" xmlns="http://www.w3.org/2000/svg">
<path d="M37.1257 9.37248L25.8941 4.36998C24.2457 3.64165 21.7541 3.64165 20.1057 4.36998L8.87406 9.37248C6.03739 10.6375 5.61572 12.3625 5.61572 13.2825C5.61572 14.2025 6.03739 15.9275 8.87406 17.1925L20.1057 22.195C20.9299 22.5591 21.9649 22.7508 22.9999 22.7508C24.0349 22.7508 25.0699 22.5591 25.8941 22.195L37.1257 17.1925C39.9624 15.9275 40.3841 14.2025 40.3841 13.2825C40.3841 12.3625 39.9816 10.6375 37.1257 9.37248Z" fill="url(#paint0_linear_350_190)"/>
<path d="M23.0001 32.66C22.2718 32.66 21.5434 32.5067 20.8726 32.2192L7.95428 26.4692C5.98011 25.5875 4.44678 23.23 4.44678 21.0642C4.44678 20.2784 5.07928 19.6459 5.86511 19.6459C6.65094 19.6459 7.28344 20.2784 7.28344 21.0642C7.28344 22.0992 8.14594 23.4409 9.10428 23.8625L22.0226 29.6125C22.6359 29.8809 23.3451 29.8809 23.9584 29.6125L36.8768 23.8625C37.8351 23.4409 38.6976 22.1184 38.6976 21.0642C38.6976 20.2784 39.3301 19.6459 40.1159 19.6459C40.9018 19.6459 41.5343 20.2784 41.5343 21.0642C41.5343 23.2109 40.0009 25.5875 38.0268 26.4692L25.1084 32.2192C24.4568 32.5067 23.7284 32.66 23.0001 32.66Z" fill="#282D45"/>
<path d="M23.0001 42.1666C22.2718 42.1666 21.5434 42.0133 20.8726 41.7258L7.95428 35.9758C5.82678 35.0366 4.44678 32.9091 4.44678 30.5708C4.44678 29.785 5.07928 29.1525 5.86511 29.1525C6.65094 29.1525 7.28344 29.785 7.28344 30.5708C7.28344 31.7783 7.99261 32.8708 9.10428 33.3691L22.0226 39.1191C22.6359 39.3875 23.3451 39.3875 23.9584 39.1191L36.8768 33.3691C37.9693 32.89 38.6976 31.7783 38.6976 30.5708C38.6976 29.785 39.3301 29.1525 40.1159 29.1525C40.9018 29.1525 41.5343 29.785 41.5343 30.5708C41.5343 32.9091 40.1543 35.0175 38.0268 35.9758L25.1084 41.7258C24.4568 42.0133 23.7284 42.1666 23.0001 42.1666Z" fill="#282D45"/>
<defs>
<linearGradient id="paint0_linear_350_190" x1="5.7399" y1="13.2869" x2="42.3708" y2="13.2868" gradientUnits="userSpaceOnUse">
<stop stop-color="#331C9C"/>
<stop offset="1" stop-color="#9066FB"/>
</linearGradient>
</defs>
</svg>
