<svg width="46" height="46" viewBox="0 0 46 46" fill="none" xmlns="http://www.w3.org/2000/svg">
<path d="M37.9471 4.55302L38.5213 5.723C38.8083 6.29774 39.526 6.83143 40.1617 6.95459L40.9409 7.07774C43.2786 7.46774 43.8323 9.19195 42.1508 10.8956L41.4331 11.614C40.9614 12.1067 40.6949 13.0509 40.8384 13.7077L40.9409 14.1388C41.5766 16.9714 40.0797 18.0593 37.619 16.5814L37.0858 16.2735C36.4501 15.904 35.4249 15.904 34.7892 16.2735L34.256 16.5814C31.7748 18.0798 30.2779 16.9714 30.9341 14.1388L31.0366 13.7077C31.1801 13.0509 30.9136 12.1067 30.4419 11.614L29.7242 10.8956C28.0427 9.19195 28.5964 7.46774 30.9341 7.07774L31.7133 6.95459C32.3285 6.85196 33.0667 6.29774 33.3537 5.723L33.9279 4.55302C35.0352 2.31566 36.8398 2.31566 37.9471 4.55302Z" fill="url(#paint0_linear_351_207)"/>
<path d="M42.1666 18.5342V29.7084C42.1666 36.4167 38.3333 39.2917 32.5833 39.2917H13.4166C7.66659 39.2917 3.83325 36.4167 3.83325 29.7084V16.2917C3.83325 9.58337 7.66659 6.70837 13.4166 6.70837H26.9291C26.5457 7.13004 26.2582 7.62838 26.0857 8.18422C25.5299 9.90922 26.0858 11.7876 27.6191 13.3401L27.9833 13.7042C27.1974 17.1734 28.8266 18.8025 29.5741 19.3392C29.9957 19.6459 30.8582 20.125 32.0849 20.125C32.9857 20.125 34.0974 19.8567 35.3816 19.0901L35.4583 19.0517L35.5349 19.0901C38.5633 20.9109 40.6141 19.8759 41.3424 19.3392C41.5724 19.1859 41.8791 18.9175 42.1666 18.5342Z" fill="#282D45"/>
<path d="M22.5209 42.1667C24.3734 42.1667 25.8751 40.665 25.8751 38.8125C25.8751 36.9601 24.3734 35.4584 22.5209 35.4584C20.6685 35.4584 19.1667 36.9601 19.1667 38.8125C19.1667 40.665 20.6685 42.1667 22.5209 42.1667Z" fill="url(#paint1_linear_351_207)"/>
<path d="M22.9999 24.6676C21.3899 24.6676 19.7607 24.1692 18.5149 23.1534L12.5157 18.3617C11.9024 17.8634 11.7874 16.9626 12.2857 16.3492C12.7841 15.7359 13.6849 15.6209 14.2982 16.1192L20.2974 20.9109C21.7541 22.0801 24.2266 22.0801 25.6832 20.9109C26.2966 20.4126 27.1974 20.5084 27.6958 21.1409C28.1941 21.7542 28.0982 22.6742 27.4657 23.1534C26.239 24.1692 24.6099 24.6676 22.9999 24.6676Z" fill="url(#paint2_linear_351_207)"/>
<defs>
<linearGradient id="paint0_linear_351_207" x1="28.8013" y1="10.0622" x2="43.9464" y2="10.0622" gradientUnits="userSpaceOnUse">
<stop stop-color="#331C9C"/>
<stop offset="1" stop-color="#9066FB"/>
</linearGradient>
<linearGradient id="paint1_linear_351_207" x1="19.1907" y1="38.8124" x2="26.2584" y2="38.8124" gradientUnits="userSpaceOnUse">
<stop stop-color="#331C9C"/>
<stop offset="1" stop-color="#9066FB"/>
</linearGradient>
<linearGradient id="paint2_linear_351_207" x1="12.0312" y1="20.2373" x2="28.9301" y2="20.2372" gradientUnits="userSpaceOnUse">
<stop stop-color="#331C9C"/>
<stop offset="1" stop-color="#9066FB"/>
</linearGradient>
</defs>
</svg>
