<svg width="42" height="42" viewBox="0 0 42 42" fill="none" xmlns="http://www.w3.org/2000/svg">
<path d="M22.75 5.68762H12.25C6.265 5.68762 3.9375 8.01512 3.9375 14.0001V28.0001C3.9375 32.0251 6.125 36.3126 12.25 36.3126H22.75C28.735 36.3126 31.0625 33.9851 31.0625 28.0001V14.0001C31.0625 8.01512 28.735 5.68762 22.75 5.68762Z" fill="#282D45"/>
<path d="M16.6071 19.8971C18.4242 19.8971 19.8971 18.4242 19.8971 16.6071C19.8971 14.7901 18.4242 13.3171 16.6071 13.3171C14.7901 13.3171 13.3171 14.7901 13.3171 16.6071C13.3171 18.4242 14.7901 19.8971 16.6071 19.8971Z" fill="url(#paint0_linear_350_197)"/>
<path d="M17.1867 29.0987C19.0037 29.0987 20.4767 27.6257 20.4767 25.8087C20.4767 23.9917 19.0037 22.5187 17.1867 22.5187C15.3697 22.5187 13.8967 23.9917 13.8967 25.8087C13.8967 27.6257 15.3697 29.0987 17.1867 29.0987Z" fill="url(#paint1_linear_350_197)"/>
<path d="M4.09756 25.6097C6.36058 25.6097 8.19512 23.7751 8.19512 21.5121C8.19512 19.2491 6.36058 17.4146 4.09756 17.4146C1.83454 17.4146 0 19.2491 0 21.5121C0 23.7751 1.83454 25.6097 4.09756 25.6097Z" fill="#0F0E1E"/>
<path d="M37.8873 10.7976C37.1698 10.4301 35.6648 10.0101 33.6173 11.4451L31.0273 13.2651C31.0448 13.5101 31.0623 13.7376 31.0623 14.0001V28.0001C31.0623 28.2626 31.0273 28.4901 31.0273 28.7351L33.6173 30.5551C34.7023 31.3251 35.6473 31.5701 36.3998 31.5701C37.0473 31.5701 37.5548 31.3951 37.8873 31.2201C38.6048 30.8526 39.8123 29.8551 39.8123 27.3526V14.6651C39.8123 12.1626 38.6048 11.1651 37.8873 10.7976Z" fill="url(#paint2_linear_350_197)"/>
<defs>
<linearGradient id="paint0_linear_350_197" x1="13.3406" y1="16.607" x2="20.2731" y2="16.607" gradientUnits="userSpaceOnUse">
<stop stop-color="#331C9C"/>
<stop offset="1" stop-color="#9066FB"/>
</linearGradient>
<linearGradient id="paint1_linear_350_197" x1="13.9202" y1="25.8085" x2="20.8527" y2="25.8085" gradientUnits="userSpaceOnUse">
<stop stop-color="#331C9C"/>
<stop offset="1" stop-color="#9066FB"/>
</linearGradient>
<linearGradient id="paint2_linear_350_197" x1="31.0587" y1="21.0059" x2="40.3143" y2="21.0059" gradientUnits="userSpaceOnUse">
<stop stop-color="#331C9C"/>
<stop offset="1" stop-color="#9066FB"/>
</linearGradient>
</defs>
</svg>
