<svg width="20" height="27" viewBox="0 0 20 27" fill="none" xmlns="http://www.w3.org/2000/svg">
<path d="M10.001 0C7.41617 0.00356069 4.93821 1.07144 3.11047 2.96948C1.28274 4.86751 0.254405 7.44078 0.250977 10.125C0.250977 17.3939 9.33473 26.498 9.72066 26.8819C9.79573 26.9576 9.89629 27 10.001 27C10.1057 27 10.2062 26.9576 10.2813 26.8819C10.6672 26.498 19.751 17.3939 19.751 10.125C19.7475 7.44078 18.7192 4.86751 16.8915 2.96948C15.0637 1.07144 12.5858 0.00356069 10.001 0V0ZM10.001 14.7656C9.11714 14.7656 8.25315 14.4935 7.51827 13.9835C6.78339 13.4736 6.21062 12.7489 5.87239 11.9009C5.53416 11.0529 5.44566 10.1199 5.61809 9.21966C5.79052 8.31947 6.21613 7.49259 6.84109 6.84358C7.46606 6.19458 8.26231 5.7526 9.12917 5.57354C9.99602 5.39448 10.8945 5.48638 11.7111 5.83762C12.5277 6.18886 13.2256 6.78366 13.7166 7.54681C14.2076 8.30995 14.4697 9.20717 14.4697 10.125C14.469 11.3555 13.998 12.5355 13.1601 13.4056C12.3222 14.2757 11.1859 14.7649 10.001 14.7656Z" fill="url(#paint0_linear_633_186)"/>
<defs>
<linearGradient id="paint0_linear_633_186" x1="-0.0689453" y1="13.2001" x2="19.5732" y2="13.2001" gradientUnits="userSpaceOnUse">
<stop stop-color="#99E9A5"/>
<stop offset="1" stop-color="#3847EF"/>
</linearGradient>
</defs>
</svg>
