<svg width="28" height="28" viewBox="0 0 28 28" fill="none" xmlns="http://www.w3.org/2000/svg">
<path d="M9.77686 14L12.5885 16.8233L18.2235 11.1766" stroke="white" stroke-width="2" stroke-linecap="round" stroke-linejoin="round"/>
<path d="M12.5419 2.85829C13.3469 2.16996 14.6652 2.16996 15.4819 2.85829L17.3252 4.44496C17.6752 4.74829 18.3285 4.99329 18.7952 4.99329H20.7785C22.0152 4.99329 23.0302 6.00829 23.0302 7.24496V9.22829C23.0302 9.68329 23.2752 10.3483 23.5785 10.6983L25.1652 12.5416C25.8535 13.3466 25.8535 14.665 25.1652 15.4816L23.5785 17.325C23.2752 17.675 23.0302 18.3283 23.0302 18.795V20.7783C23.0302 22.015 22.0152 23.03 20.7785 23.03H18.7952C18.3402 23.03 17.6752 23.275 17.3252 23.5783L15.4819 25.165C14.6769 25.8533 13.3585 25.8533 12.5419 25.165L10.6985 23.5783C10.3485 23.275 9.69519 23.03 9.22852 23.03H7.21019C5.97352 23.03 4.95852 22.015 4.95852 20.7783V18.7833C4.95852 18.3283 4.71352 17.675 4.42186 17.325L2.84686 15.47C2.17019 14.665 2.17019 13.3583 2.84686 12.5533L4.42186 10.6983C4.71352 10.3483 4.95852 9.69496 4.95852 9.23996V7.23329C4.95852 5.99662 5.97352 4.98162 7.21019 4.98162H9.22852C9.68352 4.98162 10.3485 4.73662 10.6985 4.43329L12.5419 2.85829Z" stroke="url(#paint0_linear_96_111)" stroke-width="2" stroke-linecap="round" stroke-linejoin="round"/>
<defs>
<linearGradient id="paint0_linear_96_111" x1="1.9564" y1="13.7523" x2="25.4687" y2="13.7523" gradientUnits="userSpaceOnUse">
<stop stop-color="#99E9A5"/>
<stop offset="1" stop-color="#3847EF"/>
</linearGradient>
</defs>
</svg>
