<svg width="28" height="28" viewBox="0 0 28 28" fill="none" xmlns="http://www.w3.org/2000/svg">
<path d="M25.0718 14.0001C25.4452 12.8101 25.6668 11.5267 25.6668 10.1384C25.6668 6.5334 22.7618 3.6167 19.1802 3.6167C17.0568 3.6167 15.1785 4.64343 14.0002 6.23009C12.8218 4.64343 10.9318 3.6167 8.82016 3.6167C5.23849 3.6167 2.3335 6.5334 2.3335 10.1384C2.3335 18.3051 9.89349 23.1234 13.2768 24.2901C13.4752 24.3601 13.7318 24.395 14.0002 24.395" stroke="url(#paint0_linear_96_102)" stroke-width="2" stroke-linecap="round" stroke-linejoin="round"/>
<path d="M20.6967 24.5C22.7586 24.5 24.43 22.8285 24.43 20.7667C24.43 18.7048 22.7586 17.0333 20.6967 17.0333C18.6348 17.0333 16.9634 18.7048 16.9634 20.7667C16.9634 22.8285 18.6348 24.5 20.6967 24.5Z" stroke="white" stroke-width="2" stroke-linecap="round" stroke-linejoin="round"/>
<path d="M26 26L24 24" stroke="white" stroke-width="1.5" stroke-linecap="round" stroke-linejoin="round"/>
<defs>
<linearGradient id="paint0_linear_96_102" x1="1.95068" y1="13.775" x2="25.4542" y2="13.775" gradientUnits="userSpaceOnUse">
<stop stop-color="#99E9A5"/>
<stop offset="1" stop-color="#3847EF"/>
</linearGradient>
</defs>
</svg>
